<?xml version="1.0" encoding="UTF-8"?>
<svg id="Witchcraft-Icons" xmlns="http://www.w3.org/2000/svg" viewBox="0 0 64 64">
  <defs>
    <style>
      .cls-1 {
        fill: #f3e9ff;
      }

      .cls-2 {
        fill: none;
        stroke: #f3e9ff;
        stroke-linecap: round;
        stroke-linejoin: round;
        stroke-width: 2px;
      }
    </style>
  </defs>
  <g>
    <g>
      <line class="cls-2" x1="48.63" y1="48.34" x2="20.69" y2="48.34"/>
      <path class="cls-2" d="M48.63,44.35V8.57H19.36c-2.2,0-3.99,1.79-3.99,3.99V48.34"/>
      <path class="cls-2" d="M43.75,52.33h4.88v-7.98H19.36c-2.2,0-3.99,1.79-3.99,3.99h0c0,2.2,1.79,3.99,3.99,3.99h17.22"/>
      <line class="cls-2" x1="20.69" y1="44.35" x2="20.69" y2="8.97"/>
    </g>
    <polyline class="cls-2" points="36.58 49.07 36.58 57.43 39.88 55.77 43.18 57.43 43.18 49.07"/>
  </g>
  <g>
    <polygon class="cls-2" points="28.47 34.77 34.51 17.18 40.64 34.77 25.53 23.61 43.79 23.61 28.47 34.77"/>
    <circle class="cls-2" cx="34.66" cy="26.66" r="10.29"/>
  </g>
</svg>